<svg xmlns="http://www.w3.org/2000/svg" viewBox="0 0 511.999 511.999"><path d="M500.698 115.164L464.903 79.37c-15.34-15.341-40.908-15.341-56.248 0L210.932 278.798 103.548 171.413c-15.341-15.34-40.908-15.34-56.248 0l-35.794 35.794c-15.34 15.34-15.34 40.908 0 56.249l168.746 168.746c6.818 6.818 17.045 11.932 28.976 11.932h1.705c10.227 0 20.454-3.409 27.272-11.932l260.789-260.79c17.044-15.34 17.044-40.907 1.704-56.248zm-23.863 32.386l-260.79 260.789c-1.705 1.705-3.409 1.705-3.409 1.705h-1.705c-1.705 0-3.409 0-3.409-1.705L38.776 239.594c-3.409-3.409-3.409-6.818-1.705-8.523l35.794-35.794c1.704-1.705 3.409-1.705 3.409-1.705s3.409 0 3.409 1.705l119.315 119.315c6.818 6.818 17.045 6.818 23.863 0L434.22 103.233c3.409-3.409 5.113-3.409 8.523 0l35.795 35.794c.001 1.705.001 5.114-1.703 8.523z"/></svg>