<svg xmlns="http://www.w3.org/2000/svg" viewBox="0 0 512 512"><circle cx="256" cy="256" r="256" fill="#2d4452"/><path d="M105.86 346.256L244 258l-138.252-92.168c-3.484 2.94-5.752 7.28-5.752 12.168v156c.004 4.936 2.316 9.316 5.864 12.256zm300.392-180.424L268 258l138.14 88.256c3.548-2.94 5.86-7.32 5.86-12.256V178c0-4.888-2.264-9.228-5.748-12.168z" fill="#ccc"/><path d="M256 242L105.652 346.084c2.8 2.404 6.392 3.916 10.348 3.916h280c3.952 0 7.548-1.508 10.348-3.916L256 242z" fill="#e6e6e6"/><path d="M256 270l150.348-104.084c-2.8-2.404-6.396-3.916-10.348-3.916H116c-3.956 0-7.548 1.508-10.348 3.916L256 270z" fill="#f5f5f5"/></svg>